#Comment line ignore any data following # character 
#Hierarchical Translation and Rotation (.htr) file 
[Header]	
#Header keywords are followed by a single value 
FileType HTR		#Single word string
DataType HTRS		#Translation followed by rotation and scale data
FileVersion 1		#integer
NumSegments 84		#integer
NumFrames 2		#integer
DataFrameRate 30		#integer, data frame rate in this file
EulerRotationOrder ZYX
CalibrationUnits mm
RotationUnits Degrees
GlobalAxisofGravity Y
BoneLengthAxis Y
ScaleFactor 1.00
[SegmentNames&Hierarchy]
#CHILD	PARENT
MASTER GLOBAL
root MASTER
chest root
L_mid_tent01 root
R_mid_tent01 root
spine01 root
Bip01_Neck chest
L_humerus chest
R_humerus chest
weapon_bone chest
Bip01_Head Bip01_Neck
eye_left_bone Bip01_Head
eye_right_bone Bip01_Head
L_forearm L_humerus
L_front_hand L_forearm
L_weapon_bone L_forearm
L_front_hand01_01 L_front_hand
L_front_hand02_01 L_front_hand
L_front_hand03_01 L_front_hand
L_front_hand01_02 L_front_hand01_01
L_front_hand02_02 L_front_hand02_01
L_front_hand03_02 L_front_hand03_01
R_forearm R_humerus
R_front_hand R_forearm
R_weapon_bone R_forearm
R_front_hand01_01 R_front_hand
R_front_hand02_01 R_front_hand
R_front_hand03_01 R_front_hand
R_front_hand01_02 R_front_hand01_01
R_front_hand02_02 R_front_hand02_01
R_front_hand03_02 R_front_hand03_01
null_rope01_connect L_mid_tent01
Rope1_Seg01 null_rope01_connect
Rope1_Seg02 Rope1_Seg01
Rope1_Seg03 Rope1_Seg02
Rope1_Seg04 Rope1_Seg03
Rope1_Seg05 Rope1_Seg04
Rope1_Seg06 Rope1_Seg05
Rope1_Seg07 Rope1_Seg06
Rope1_Seg09 Rope1_Seg07
L_mid_hand01 Rope1_Seg09
L_mid_hand02 Rope1_Seg09
L_mid_hand03 Rope1_Seg09
null_rope02_connect R_mid_tent01
Rope2_Seg01 null_rope02_connect
Rope2_Seg02 Rope2_Seg01
Rope2_Seg03 Rope2_Seg02
Rope2_Seg04 Rope2_Seg03
Rope2_Seg05 Rope2_Seg04
Rope2_Seg06 Rope2_Seg05
Rope2_Seg07 Rope2_Seg06
Rope2_Seg09 Rope2_Seg07
R_mid_hand01 Rope2_Seg09
R_mid_hand02 Rope2_Seg09
R_mid_hand03 Rope2_Seg09
spine02 spine01
spine03 spine02
pelvis spine03
null_rope03_connect pelvis
null_rope04_connect pelvis
Rope3_Seg01 null_rope03_connect
Rope3_Seg02 Rope3_Seg01
Rope3_Seg03 Rope3_Seg02
Rope3_Seg04 Rope3_Seg03
Rope3_Seg05 Rope3_Seg04
Rope3_Seg06 Rope3_Seg05
Rope3_Seg07 Rope3_Seg06
Rope3_Seg08 Rope3_Seg07
Rope3_Seg09 Rope3_Seg08
R_rear_hand01 Rope3_Seg09
R_rear_hand02 Rope3_Seg09
R_rear_hand03 Rope3_Seg09
Rope4_Seg01 null_rope04_connect
Rope4_Seg02 Rope4_Seg01
Rope4_Seg03 Rope4_Seg02
Rope4_Seg04 Rope4_Seg03
Rope4_Seg05 Rope4_Seg04
Rope4_Seg06 Rope4_Seg05
Rope4_Seg07 Rope4_Seg06
Rope4_Seg08 Rope4_Seg07
Rope4_Seg09 Rope4_Seg08
L_rear_hand01 Rope4_Seg09
L_rear_hand02 Rope4_Seg09
L_rear_hand03 Rope4_Seg09
[BasePosition]
#SegmentName Tx, Ty, Tz, Rx, Ry, Rz, BoneLength
MASTER 0.000000 0.000000 0.000000 -90.000000 0.000000 0.000000 10.000000 
root 0.000000 0.000000 0.000000 0.000000 0.000000 0.000000 10.000000 
chest 0.000000 0.000000 0.000000 0.000000 0.000000 0.000000 10.000000 
L_mid_tent01 0.000000 0.000000 0.000000 0.000000 0.000000 0.000000 10.000000 
R_mid_tent01 0.000000 0.000000 0.000000 0.000000 0.000000 0.000000 10.000000 
spine01 0.000000 0.000000 0.000000 0.000000 0.000000 0.000000 10.000000 
Bip01_Neck 0.000000 0.000000 0.000000 0.000000 0.000000 0.000000 10.000000 
L_humerus 0.000000 0.000000 0.000000 0.000000 0.000000 0.000000 10.000000 
R_humerus 0.000000 0.000000 0.000000 0.000000 0.000000 0.000000 10.000000 
weapon_bone 0.000000 0.000000 0.000000 0.000000 0.000000 0.000000 10.000000 
Bip01_Head 0.000000 0.000000 0.000000 0.000000 0.000000 0.000000 10.000000 
eye_left_bone 0.000000 0.000000 0.000000 0.000000 0.000000 0.000000 10.000000 
eye_right_bone 0.000000 0.000000 0.000000 0.000000 0.000000 0.000000 10.000000 
L_forearm 0.000000 0.000000 0.000000 0.000000 0.000000 0.000000 10.000000 
L_front_hand 0.000000 0.000000 0.000000 0.000000 0.000000 0.000000 10.000000 
L_weapon_bone 0.000000 0.000000 0.000000 0.000000 0.000000 0.000000 10.000000 
L_front_hand01_01 0.000000 0.000000 0.000000 0.000000 0.000000 0.000000 10.000000 
L_front_hand02_01 0.000000 0.000000 0.000000 0.000000 0.000000 0.000000 10.000000 
L_front_hand03_01 0.000000 0.000000 0.000000 0.000000 0.000000 0.000000 10.000000 
L_front_hand01_02 0.000000 0.000000 0.000000 0.000000 0.000000 0.000000 10.000000 
L_front_hand02_02 0.000000 0.000000 0.000000 0.000000 0.000000 0.000000 10.000000 
L_front_hand03_02 0.000000 0.000000 0.000000 0.000000 0.000000 0.000000 10.000000 
R_forearm 0.000000 0.000000 0.000000 0.000000 0.000000 0.000000 10.000000 
R_front_hand 0.000000 0.000000 0.000000 0.000000 0.000000 0.000000 10.000000 
R_weapon_bone 0.000000 0.000000 0.000000 0.000000 0.000000 0.000000 10.000000 
R_front_hand01_01 0.000000 0.000000 0.000000 0.000000 0.000000 0.000000 10.000000 
R_front_hand02_01 0.000000 0.000000 0.000000 0.000000 0.000000 0.000000 10.000000 
R_front_hand03_01 0.000000 0.000000 0.000000 0.000000 0.000000 0.000000 10.000000 
R_front_hand01_02 0.000000 0.000000 0.000000 0.000000 0.000000 0.000000 10.000000 
R_front_hand02_02 0.000000 0.000000 0.000000 0.000000 0.000000 0.000000 10.000000 
R_front_hand03_02 0.000000 0.000000 0.000000 0.000000 0.000000 0.000000 10.000000 
null_rope01_connect 0.000000 0.000000 0.000000 0.000000 0.000000 0.000000 10.000000 
Rope1_Seg01 0.000000 0.000000 0.000000 0.000000 0.000000 0.000000 10.000000 
Rope1_Seg02 0.000000 0.000000 0.000000 0.000000 0.000000 0.000000 10.000000 
Rope1_Seg03 0.000000 0.000000 0.000000 0.000000 0.000000 0.000000 10.000000 
Rope1_Seg04 0.000000 0.000000 0.000000 0.000000 0.000000 0.000000 10.000000 
Rope1_Seg05 0.000000 0.000000 0.000000 0.000000 0.000000 0.000000 10.000000 
Rope1_Seg06 0.000000 0.000000 0.000000 0.000000 0.000000 0.000000 10.000000 
Rope1_Seg07 0.000000 0.000000 0.000000 0.000000 0.000000 0.000000 10.000000 
Rope1_Seg09 0.000000 0.000000 0.000000 0.000000 0.000000 0.000000 10.000000 
L_mid_hand01 0.000000 0.000000 0.000000 0.000000 0.000000 0.000000 10.000000 
L_mid_hand02 0.000000 0.000000 0.000000 0.000000 0.000000 0.000000 10.000000 
L_mid_hand03 0.000000 0.000000 0.000000 0.000000 0.000000 0.000000 10.000000 
null_rope02_connect 0.000000 0.000000 0.000000 0.000000 0.000000 0.000000 10.000000 
Rope2_Seg01 0.000000 0.000000 0.000000 0.000000 0.000000 0.000000 10.000000 
Rope2_Seg02 0.000000 0.000000 0.000000 0.000000 0.000000 0.000000 10.000000 
Rope2_Seg03 0.000000 0.000000 0.000000 0.000000 0.000000 0.000000 10.000000 
Rope2_Seg04 0.000000 0.000000 0.000000 0.000000 0.000000 0.000000 10.000000 
Rope2_Seg05 0.000000 0.000000 0.000000 0.000000 0.000000 0.000000 10.000000 
Rope2_Seg06 0.000000 0.000000 0.000000 0.000000 0.000000 0.000000 10.000000 
Rope2_Seg07 0.000000 0.000000 0.000000 0.000000 0.000000 0.000000 10.000000 
Rope2_Seg09 0.000000 0.000000 0.000000 0.000000 0.000000 0.000000 10.000000 
R_mid_hand01 0.000000 0.000000 0.000000 0.000000 0.000000 0.000000 10.000000 
R_mid_hand02 0.000000 0.000000 0.000000 0.000000 0.000000 0.000000 10.000000 
R_mid_hand03 0.000000 0.000000 0.000000 0.000000 0.000000 0.000000 10.000000 
spine02 0.000000 0.000000 0.000000 0.000000 0.000000 0.000000 10.000000 
spine03 0.000000 0.000000 0.000000 0.000000 0.000000 0.000000 10.000000 
pelvis 0.000000 0.000000 0.000000 0.000000 0.000000 0.000000 10.000000 
null_rope03_connect 0.000000 0.000000 0.000000 0.000000 0.000000 0.000000 10.000000 
null_rope04_connect 0.000000 0.000000 0.000000 0.000000 0.000000 0.000000 10.000000 
Rope3_Seg01 0.000000 0.000000 0.000000 0.000000 0.000000 0.000000 10.000000 
Rope3_Seg02 0.000000 0.000000 0.000000 0.000000 0.000000 0.000000 10.000000 
Rope3_Seg03 0.000000 0.000000 0.000000 0.000000 0.000000 0.000000 10.000000 
Rope3_Seg04 0.000000 0.000000 0.000000 0.000000 0.000000 0.000000 10.000000 
Rope3_Seg05 0.000000 0.000000 0.000000 0.000000 0.000000 0.000000 10.000000 
Rope3_Seg06 0.000000 0.000000 0.000000 0.000000 0.000000 0.000000 10.000000 
Rope3_Seg07 0.000000 0.000000 0.000000 0.000000 0.000000 0.000000 10.000000 
Rope3_Seg08 0.000000 0.000000 0.000000 0.000000 0.000000 0.000000 10.000000 
Rope3_Seg09 0.000000 0.000000 0.000000 0.000000 0.000000 0.000000 10.000000 
R_rear_hand01 0.000000 0.000000 0.000000 0.000000 0.000000 0.000000 10.000000 
R_rear_hand02 0.000000 0.000000 0.000000 0.000000 0.000000 0.000000 10.000000 
R_rear_hand03 0.000000 0.000000 0.000000 0.000000 0.000000 0.000000 10.000000 
Rope4_Seg01 0.000000 0.000000 0.000000 0.000000 0.000000 0.000000 10.000000 
Rope4_Seg02 0.000000 0.000000 0.000000 0.000000 0.000000 0.000000 10.000000 
Rope4_Seg03 0.000000 0.000000 0.000000 0.000000 0.000000 0.000000 10.000000 
Rope4_Seg04 0.000000 0.000000 0.000000 0.000000 0.000000 0.000000 10.000000 
Rope4_Seg05 0.000000 0.000000 0.000000 0.000000 0.000000 0.000000 10.000000 
Rope4_Seg06 0.000000 0.000000 0.000000 0.000000 0.000000 0.000000 10.000000 
Rope4_Seg07 0.000000 0.000000 0.000000 0.000000 0.000000 0.000000 10.000000 
Rope4_Seg08 0.000000 0.000000 0.000000 0.000000 0.000000 0.000000 10.000000 
Rope4_Seg09 0.000000 0.000000 0.000000 0.000000 0.000000 0.000000 10.000000 
L_rear_hand01 0.000000 0.000000 0.000000 0.000000 0.000000 0.000000 10.000000 
L_rear_hand02 0.000000 0.000000 0.000000 0.000000 0.000000 0.000000 10.000000 
L_rear_hand03 0.000000 0.000000 0.000000 0.000000 0.000000 0.000000 10.000000 
#Beginning of Data. Separated by tabs
#Fr	Tx	Ty	Tz	Rx	Ry	Rz	SF
[MASTER]
31 0.000000 0.000000 0.000000 0.001660 0.001660 0.001660 0.000000
32 0.000000 0.000000 0.000000 0.001660 0.001660 0.001660 0.000000
[root]
31 -37.590969 10.537099 1475.364136 -91.740158 13.400836 -90.225014 1475.880493
32 -37.385098 10.029302 1479.558960 -91.740158 13.400836 -90.225014 1480.065186
[chest]
31 -84.512650 -34.090519 0.000000 -2.117274 0.462005 -179.268204 91.129311
32 -84.512650 -34.090519 0.000000 -2.117274 0.462005 -179.268204 91.129311
[L_mid_tent01]
31 27.299511 22.177458 -249.918259 -6.370866 12.209474 54.433300 252.381134
32 27.299511 22.177458 -249.918259 -6.334085 9.939650 53.575935 252.381134
[R_mid_tent01]
31 23.228794 24.509907 226.238495 -174.763321 -11.654498 54.824001 228.744751
32 23.228794 24.509907 226.238495 -174.626389 -11.038805 54.367222 228.744751
[spine01]
31 -0.361383 -0.195265 0.000000 -0.000001 -0.000007 22.052340 0.410763
32 -0.361383 -0.195265 0.000000 -0.000001 -0.000007 22.052340 0.410763
[Bip01_Neck]
31 165.484543 71.581718 0.000119 175.896118 1.177290 24.871183 180.302734
32 165.484543 71.581718 0.000119 175.896118 1.177290 24.871183 180.302734
[L_humerus]
31 -13.983130 -135.272980 -120.471481 175.474304 58.687801 -118.474754 181.680161
32 -13.983130 -135.272980 -120.471481 175.474304 58.687801 -118.474754 181.680161
[R_humerus]
31 -13.983309 -135.273102 125.287651 174.588181 -51.786888 -99.934280 184.909012
32 -13.983309 -135.273102 125.287651 174.588181 -51.786877 -99.934273 184.909012
[weapon_bone]
31 235.964890 -300.705902 0.000000 0.000000 -89.951546 -128.212341 382.234833
32 235.964890 -300.705902 0.000000 0.000000 -89.951546 -128.212341 382.234833
[Bip01_Head]
31 163.817291 272.852325 22.822264 1.693472 4.424703 -42.711670 319.069519
32 163.817291 272.852325 22.822264 1.693472 4.424703 -42.711670 319.069519
[eye_left_bone]
31 -24.626970 125.451866 -64.772606 0.000000 -90.000000 -99.840431 143.318359
32 -24.626970 125.451866 -64.772606 0.000000 -90.000000 -99.840431 143.318359
[eye_right_bone]
31 -24.626970 125.451866 64.327362 0.000000 -89.965736 80.156380 143.117676
32 -24.626970 125.451866 64.327362 0.000000 -89.965736 80.156380 143.117676
[L_forearm]
31 322.776093 0.000000 -0.000119 0.000442 -0.002305 -111.718391 322.776093
32 322.776093 0.000000 -0.000119 0.000442 -0.002305 -111.718391 322.776093
[L_front_hand]
31 241.149185 -0.042021 -3.300071 -179.659958 -2.242151 -0.019832 241.171753
32 241.149185 -0.042021 -3.300071 -179.659958 -2.242151 -0.019832 241.171753
[L_weapon_bone]
31 156.183838 0.000000 0.000000 0.000014 0.000007 0.000001 156.183838
32 156.183838 0.000000 0.000000 0.000014 0.000007 0.000001 156.183838
[L_front_hand01_01]
31 86.095154 20.947098 -0.655860 -0.366594 -0.477154 75.385574 88.609184
32 86.095154 20.947098 -0.655860 -0.366594 -0.477154 75.385574 88.609184
[L_front_hand02_01]
31 86.935165 -11.437475 24.513514 154.399796 -59.883835 -61.369587 91.046425
32 86.935165 -11.437475 24.513514 154.399796 -59.883835 -61.369587 91.046425
[L_front_hand03_01]
31 86.637497 -14.123976 -20.424902 -153.913849 58.118122 -62.702866 90.126129
32 86.637497 -14.123976 -20.424902 -153.913849 58.118122 -62.702866 90.126129
[L_front_hand01_02]
31 71.020905 -0.000179 0.000030 0.000334 -0.002323 -106.379684 71.020905
32 71.020905 -0.000179 0.000030 0.000334 -0.002323 -106.379684 71.020905
[L_front_hand02_02]
31 71.020927 -0.000119 0.000060 0.000334 -0.002323 -106.379684 71.020927
32 71.020927 -0.000119 0.000060 0.000334 -0.002323 -106.379684 71.020927
[L_front_hand03_02]
31 71.020905 -0.000060 0.000060 0.000334 -0.002323 -106.379684 71.020905
32 71.020905 -0.000060 0.000060 0.000334 -0.002323 -106.379684 71.020905
[R_forearm]
31 322.776428 -0.000060 0.000030 0.211305 0.032976 -99.623016 322.776428
32 322.776428 -0.000060 0.000030 0.211305 0.032976 -99.623016 322.776428
[R_front_hand]
31 238.847015 -0.006795 2.210259 -0.270529 1.703932 2.322530 238.857239
32 238.847015 -0.006795 2.210259 -0.270529 1.703932 2.322530 238.857239
[R_weapon_bone]
31 155.664093 0.002503 -0.000030 0.003487 0.001180 -90.988930 155.664078
32 155.664093 0.002503 -0.000030 0.003487 0.001180 -90.988930 155.664078
[R_front_hand01_01]
31 87.624611 14.231146 22.918642 -154.633499 -59.950619 61.746044 91.683487
32 87.624611 14.231146 22.918642 -154.633499 -59.950634 61.746063 91.683487
[R_front_hand02_01]
31 89.356956 14.367283 -19.491137 154.602661 58.302849 63.744389 92.579636
32 89.356956 14.367283 -19.491137 154.602661 58.302849 63.744389 92.579636
[R_front_hand03_01]
31 87.286232 -22.307278 -0.143439 0.162155 -0.423168 -75.767921 90.091743
32 87.286232 -22.307278 -0.143439 0.162155 -0.423168 -75.767921 90.091743
[R_front_hand01_02]
31 71.020905 0.000060 0.000119 0.002323 -0.000334 106.381714 71.020905
32 71.020905 0.000060 0.000119 0.002323 -0.000334 106.381714 71.020905
[R_front_hand02_02]
31 71.020844 -0.000030 -0.000119 0.002323 -0.000334 106.381714 71.020836
32 71.020844 -0.000030 -0.000119 0.002323 -0.000334 106.381714 71.020836
[R_front_hand03_02]
31 71.020905 0.000000 0.000030 0.002323 -0.000334 106.381714 71.020905
32 71.020905 0.000000 0.000030 0.002323 -0.000334 106.381714 71.020905
[null_rope01_connect]
31 328.732483 0.000000 -0.000238 174.298065 -74.545097 -152.819839 328.732483
32 328.732483 0.000000 -0.000238 170.722275 -76.530579 -148.269470 328.732483
[Rope1_Seg01]
31 0.000000 0.000000 0.000000 -155.877991 50.439392 -132.078354 0.000000
32 0.000000 0.000000 0.000000 -158.317902 50.893394 -133.595886 0.000000
[Rope1_Seg02]
31 139.999863 -0.000179 0.000000 26.930443 -4.058172 -12.469253 139.999863
32 139.999863 -0.000179 0.000000 26.766693 -3.972558 -12.883371 139.999863
[Rope1_Seg03]
31 139.999924 0.000060 -0.000060 22.509832 -7.174029 -7.053065 139.999924
32 139.999924 0.000060 -0.000060 22.600681 -7.276491 -7.283105 139.999924
[Rope1_Seg04]
31 139.999924 -0.000060 -0.000119 11.372017 -6.562521 -1.757626 139.999924
32 139.999924 -0.000060 -0.000119 11.524503 -7.050757 -1.642011 139.999924
[Rope1_Seg05]
31 139.999832 0.000119 -0.000060 8.052541 -5.032184 -1.558713 139.999832
32 139.999832 0.000119 -0.000060 7.825671 -4.733620 -1.825650 139.999832
[Rope1_Seg06]
31 139.999954 0.000119 -0.000060 9.890764 -6.306046 -2.662556 139.999954
32 139.999954 0.000119 -0.000060 10.257238 -5.382160 -3.753093 139.999954
[Rope1_Seg07]
31 139.999985 0.000060 0.000000 10.891647 -8.724153 -2.655268 139.999985
32 139.999985 0.000060 0.000000 12.872867 -7.825861 -4.589638 139.999985
[Rope1_Seg09]
31 121.602913 0.000119 -0.000089 -89.793175 -1.359789 0.847147 121.602913
32 121.602913 0.000119 -0.000089 -89.793175 -1.359789 0.847147 121.602913
[L_mid_hand01]
31 103.859421 1.038730 8.195221 106.855484 -31.239275 -9.461397 104.187431
32 103.859421 1.038730 8.195221 106.855484 -31.239275 -9.461397 104.187431
[L_mid_hand02]
31 105.572853 -4.139662 -10.864139 -142.331345 25.752670 -28.774628 106.211075
32 105.572853 -4.139662 -10.864139 -142.331345 25.752670 -28.774628 106.211075
[L_mid_hand03]
31 104.641464 17.579376 -3.913581 -16.122810 9.734291 34.223598 106.179977
32 104.641464 17.579376 -3.913581 -16.122810 9.734291 34.223598 106.179977
[null_rope02_connect]
31 328.732849 0.000179 -0.000119 177.867050 78.934082 -23.357296 328.732849
32 328.732849 0.000179 -0.000119 176.397491 79.434387 -25.304115 328.732849
[Rope2_Seg01]
31 0.000000 0.000000 0.000000 153.205032 56.624744 -79.193504 0.000000
32 0.000000 0.000000 0.000000 146.867645 57.001831 -85.065536 0.000000
[Rope2_Seg02]
31 139.999741 -0.000060 -0.000119 -0.696948 10.015581 -4.285330 139.999756
32 139.999741 -0.000060 -0.000119 0.250714 10.720084 -5.610119 139.999756
[Rope2_Seg03]
31 140.000107 0.000030 0.000000 8.258134 11.465884 -9.547375 140.000107
32 140.000107 0.000030 0.000000 10.338919 11.630395 -10.993877 140.000107
[Rope2_Seg04]
31 139.999802 0.000000 -0.000060 3.302375 7.604784 -4.376677 139.999802
32 139.999802 0.000000 -0.000060 5.915026 7.246593 -5.049120 139.999802
[Rope2_Seg05]
31 139.999985 -0.000060 0.000119 -49.607441 4.459883 23.322201 139.999985
32 139.999985 -0.000060 0.000119 -50.357059 6.724381 20.196245 139.999985
[Rope2_Seg06]
31 139.999893 -0.000030 -0.000119 -10.352669 -11.562589 14.328794 139.999893
32 139.999893 -0.000030 -0.000119 -12.376459 -8.592769 13.662045 139.999893
[Rope2_Seg07]
31 139.999893 0.000060 -0.000060 -2.954383 -6.483387 6.539813 139.999893
32 139.999893 0.000060 -0.000060 -3.831020 -5.361022 6.431015 139.999893
[Rope2_Seg09]
31 121.338966 0.000089 -0.000060 33.793236 -1.359788 -0.847141 121.338966
32 121.338966 0.000089 -0.000060 33.793236 -1.359788 -0.847141 121.338966
[R_mid_hand01]
31 104.680779 11.144459 -10.335981 -41.523792 25.424656 28.595957 105.778534
32 104.680779 11.144459 -10.335981 -41.523792 25.424656 28.595957 105.778534
[R_mid_hand02]
31 104.070427 2.443552 8.231699 72.847389 -32.746803 10.013901 104.424065
32 104.070427 2.443552 8.231699 72.847389 -32.746803 10.013901 104.424065
[R_mid_hand03]
31 106.028137 -11.221827 -5.996406 -167.901306 10.259192 -37.009720 106.788818
32 106.028137 -11.221827 -5.996406 -167.901306 10.259192 -37.009720 106.788818
[spine02]
31 129.756927 0.001550 0.000119 0.360061 -4.044797 -12.915058 129.756927
32 129.756927 0.001550 0.000119 0.360061 -4.044797 -12.915058 129.756927
[spine03]
31 78.613846 0.087372 -4.898873 1.896495 3.831288 16.473045 78.766380
32 78.613846 0.087372 -4.898873 1.896495 3.831288 16.473045 78.766380
[pelvis]
31 169.435242 0.051022 0.000000 -0.060465 -0.180225 14.087930 169.435257
32 169.435242 0.051022 0.000000 -0.060465 -0.180225 14.087930 169.435257
[null_rope03_connect]
31 -1.257226 -2.466202 137.391083 -159.503860 -89.311867 -163.586563 137.418976
32 -1.257226 -2.466202 137.391083 -159.503860 -89.311867 -163.586563 137.418976
[null_rope04_connect]
31 -1.259640 -2.480268 -137.844437 -159.503860 -89.311867 -163.586563 137.872513
32 -1.259640 -2.480268 -137.844437 -159.503860 -89.311867 -163.586563 137.872513
[Rope3_Seg01]
31 0.000000 0.000000 0.000000 -135.779526 13.562067 -105.650330 0.000000
32 0.000000 0.000000 0.000000 -134.919357 12.464859 -103.423470 0.000000
[Rope3_Seg02]
31 139.999924 -0.000119 0.000060 -3.745795 -8.373821 0.444658 139.999924
32 139.999924 -0.000119 0.000060 -3.710830 -7.730169 1.814749 139.999924
[Rope3_Seg03]
31 139.999924 -0.000119 0.000119 -3.615026 -10.120849 0.465933 139.999924
32 139.999924 -0.000119 0.000119 -3.909088 -9.109067 2.363493 139.999924
[Rope3_Seg04]
31 139.999924 0.000119 0.000000 -3.872545 -12.954017 1.890758 139.999924
32 139.999924 0.000119 0.000000 -4.770621 -11.073797 4.637746 139.999924
[Rope3_Seg05]
31 139.999924 -0.000238 0.000060 0.411113 -4.726320 -7.028773 139.999924
32 139.999924 -0.000238 0.000060 0.433081 -5.840629 -8.054432 139.999924
[Rope3_Seg06]
31 139.999893 -0.000119 -0.000060 0.594943 0.630687 -8.425393 139.999893
32 139.999893 -0.000119 -0.000060 0.870771 -1.489144 -10.291824 139.999893
[Rope3_Seg07]
31 139.999771 0.000060 -0.000119 0.479419 -1.252262 -4.312575 139.999771
32 139.999771 0.000060 -0.000119 0.546802 -2.128731 -4.822948 139.999771
[Rope3_Seg08]
31 139.999985 -0.000060 0.000000 0.456746 -0.833488 -2.712244 139.999985
32 139.999985 -0.000060 0.000000 0.496978 -1.355905 -2.972194 139.999985
[Rope3_Seg09]
31 90.185997 -0.000179 -0.000060 89.793228 -1.359877 -0.847183 90.185997
32 90.185997 -0.000179 -0.000060 89.793228 -1.359877 -0.847183 90.185997
[R_rear_hand01]
31 103.366196 -6.073594 -10.757982 -161.551193 16.666374 -30.088671 104.101845
32 103.366196 -6.073594 -10.757982 -161.551193 16.666374 -30.088671 104.101845
[R_rear_hand02]
31 100.509819 12.039542 -7.992327 -34.280552 19.289745 28.875523 101.543350
32 100.509819 12.039542 -7.992327 -34.280552 19.289745 28.875523 101.543350
[R_rear_hand03]
31 101.539970 5.215704 5.435467 83.366440 -30.933914 7.284830 101.819031
32 101.539970 5.215704 5.435467 83.366440 -30.933914 7.284830 101.819031
[Rope4_Seg01]
31 0.000010 0.000038 -0.000114 39.002007 30.745878 -121.413551 0.000121
32 0.000010 0.000038 -0.000114 39.967426 31.941639 -119.467155 0.000121
[Rope4_Seg02]
31 139.999985 0.000060 0.000119 0.510210 3.531744 5.883437 139.999985
32 139.999985 0.000060 0.000119 0.356780 2.599336 5.389106 139.999985
[Rope4_Seg03]
31 139.999924 0.000000 -0.000238 0.201207 5.275647 8.733013 139.999924
32 139.999924 0.000000 -0.000238 0.056088 3.775916 7.808191 139.999924
[Rope4_Seg04]
31 139.999985 0.000000 0.000119 -1.583237 8.835262 16.682545 139.999985
32 139.999985 0.000000 0.000119 -1.438145 5.055829 13.859688 139.999985
[Rope4_Seg05]
31 139.999802 -0.000060 -0.000119 -2.764446 7.689987 11.054427 139.999802
32 139.999802 -0.000060 -0.000119 -2.299515 8.262894 12.358549 139.999802
[Rope4_Seg06]
31 139.999924 0.000000 0.000060 0.920461 2.366433 -0.063450 139.999924
32 139.999924 0.000000 0.000060 -0.032166 4.763063 2.876523 139.999924
[Rope4_Seg07]
31 139.999802 0.000000 0.000000 -0.485658 1.919194 1.917768 139.999802
32 139.999802 0.000000 0.000000 -0.931077 2.593627 2.954119 139.999802
[Rope4_Seg08]
31 139.999924 0.000000 0.000119 -1.881328 1.133715 1.160351 139.999924
32 139.999924 0.000000 0.000119 -2.196725 1.489797 1.754084 139.999924
[Rope4_Seg09]
31 90.185791 0.000060 0.000060 -135.617828 2.228885 0.850567 90.185791
32 90.185791 0.000060 0.000060 -135.617828 2.228885 0.850567 90.185791
[L_rear_hand01]
31 101.696655 -8.392275 -7.654577 -34.454281 -18.946800 151.655121 102.329041
32 101.696655 -8.392275 -7.654577 -34.454281 -18.946800 151.655121 102.329041
[L_rear_hand02]
31 102.726799 -1.568258 5.773216 83.407906 30.330435 172.796509 102.900848
32 102.726799 -1.568258 5.773216 83.407906 30.330435 172.796509 102.900848
[L_rear_hand03]
31 104.552910 9.721220 -10.420293 -161.379868 -16.473232 -150.512238 105.519653
32 104.552910 9.721220 -10.420293 -161.379868 -16.473232 -150.512238 105.519653
